<svg id="visual" viewBox="0 0 900 600" width="900" height="600" xmlns="http://www.w3.org/2000/svg" xmlns:xlink="http://www.w3.org/1999/xlink" version="1.1"><rect x="0" y="0" width="900" height="600" fill="#001220"></rect><path d="M0 106L21.5 104.5C43 103 86 100 128.8 92.7C171.7 85.3 214.3 73.7 257.2 72.2C300 70.7 343 79.3 385.8 92C428.7 104.7 471.3 121.3 514.2 121C557 120.7 600 103.3 642.8 94C685.7 84.7 728.3 83.3 771.2 81.5C814 79.7 857 77.3 878.5 76.2L900 75L900 0L878.5 0C857 0 814 0 771.2 0C728.3 0 685.7 0 642.8 0C600 0 557 0 514.2 0C471.3 0 428.7 0 385.8 0C343 0 300 0 257.2 0C214.3 0 171.7 0 128.8 0C86 0 43 0 21.5 0L0 0Z" fill="#fa7268"></path><path d="M0 107L21.5 102.5C43 98 86 89 128.8 90.2C171.7 91.3 214.3 102.7 257.2 102.5C300 102.3 343 90.7 385.8 89.3C428.7 88 471.3 97 514.2 97.8C557 98.7 600 91.3 642.8 87.2C685.7 83 728.3 82 771.2 86C814 90 857 99 878.5 103.5L900 108L900 0L878.5 0C857 0 814 0 771.2 0C728.3 0 685.7 0 642.8 0C600 0 557 0 514.2 0C471.3 0 428.7 0 385.8 0C343 0 300 0 257.2 0C214.3 0 171.7 0 128.8 0C86 0 43 0 21.5 0L0 0Z" fill="#ef5f67"></path><path d="M0 67L21.5 63C43 59 86 51 128.8 49C171.7 47 214.3 51 257.2 58.7C300 66.3 343 77.7 385.8 82.8C428.7 88 471.3 87 514.2 78.8C557 70.7 600 55.3 642.8 53.5C685.7 51.7 728.3 63.3 771.2 67C814 70.7 857 66.3 878.5 64.2L900 62L900 0L878.5 0C857 0 814 0 771.2 0C728.3 0 685.7 0 642.8 0C600 0 557 0 514.2 0C471.3 0 428.7 0 385.8 0C343 0 300 0 257.2 0C214.3 0 171.7 0 128.8 0C86 0 43 0 21.5 0L0 0Z" fill="#e34c67"></path><path d="M0 49L21.5 51C43 53 86 57 128.8 59.7C171.7 62.3 214.3 63.7 257.2 62C300 60.3 343 55.7 385.8 54.5C428.7 53.3 471.3 55.7 514.2 51.7C557 47.7 600 37.3 642.8 37C685.7 36.7 728.3 46.3 771.2 46.3C814 46.3 857 36.7 878.5 31.8L900 27L900 0L878.5 0C857 0 814 0 771.2 0C728.3 0 685.7 0 642.8 0C600 0 557 0 514.2 0C471.3 0 428.7 0 385.8 0C343 0 300 0 257.2 0C214.3 0 171.7 0 128.8 0C86 0 43 0 21.5 0L0 0Z" fill="#d53867"></path><path d="M0 42L21.5 38.8C43 35.7 86 29.3 128.8 26.7C171.7 24 214.3 25 257.2 24.2C300 23.3 343 20.7 385.8 21.3C428.7 22 471.3 26 514.2 26.5C557 27 600 24 642.8 22.2C685.7 20.3 728.3 19.7 771.2 20C814 20.3 857 21.7 878.5 22.3L900 23L900 0L878.5 0C857 0 814 0 771.2 0C728.3 0 685.7 0 642.8 0C600 0 557 0 514.2 0C471.3 0 428.7 0 385.8 0C343 0 300 0 257.2 0C214.3 0 171.7 0 128.8 0C86 0 43 0 21.5 0L0 0Z" fill="#c62368"></path></svg>